<?xml version="1.0" encoding="UTF-8"?><svg id="uuid-a0336092-95fb-455b-9cfc-02d69f3748b0" xmlns="http://www.w3.org/2000/svg" viewBox="0 0 668.74 522.23"><g><path d="M7.08,514.74c-4.72-4.72-7.08-10.56-7.08-17.52V25.34C0,18.39,2.35,12.43,7.08,7.46,11.78,2.49,17.62,0,24.58,0h59.58c6.95,0,12.78,2.49,17.5,7.46,4.71,4.97,7.08,10.93,7.08,17.88v231.1H58.69V49.94h-8.63V471.88h8.63v-206.49h50.06v231.83c0,6.96-2.36,12.8-7.08,17.52-4.72,4.73-10.55,7.08-17.5,7.08H24.58c-6.96,0-12.79-2.35-17.5-7.08h0Z" fill="#e26ef5"/><path d="M117.8,521.83V0h50.06V471.88h8.63v-206.49h50.06v256.44H117.8Z" fill="#e26ef5"/><path d="M242.69,514.74c-4.72-4.72-7.08-10.56-7.08-17.52V0h50.06V471.99h8.63V0h50.06V497.22c0,6.96-2.36,12.8-7.08,17.52-4.72,4.73-10.55,7.08-17.5,7.08h-59.58c-6.96,0-12.79-2.35-17.5-7.08h0Z" fill="#e26ef5"/><path d="M353.41,521.83V0h108.74V226.38h-50.06V49.89h-8.63V235.31h58.69v50.06h-58.69v186.48h8.63v-176.78h50.06v226.76h-108.74s0,0,0,0Z" fill="#e26ef5"/></g><g><path d="M603.47,449.93h25.36c7.53,.25,14.31,1.76,20.08,4.52,5.02,2.26,9.79,5.77,13.56,10.8,4.02,5.02,6.28,11.8,6.28,20.84s-2.26,16.07-6.28,21.09c-3.77,5.02-8.54,8.28-13.56,10.54-5.77,2.76-12.55,4.27-20.08,4.52h-108.71c-7.28-.25-14.06-1.76-19.83-4.52-5.02-2.26-10.04-5.52-13.81-10.54-3.77-5.02-6.28-12.05-6.28-21.09s2.51-15.82,6.28-20.84c3.77-5.02,8.79-8.54,13.81-10.8,5.77-2.76,12.55-4.27,19.83-4.52h25.36v25.36h-25.36c-5.02,0-8.54,1.25-11.55,4.02-1.26,1.25-2.01,3.51-2.01,6.28,0,4.77,3.51,7.03,6.78,8.29,2.01,.75,4.27,1,6.78,1.25h108.71c5.27-.25,8.79-1.76,11.55-4.27,1.25-1.26,2.01-3.01,2.01-5.27,0-5.77-3.01-8.03-6.78-9.29-1.76-.75-4.02-1-6.78-1h-25.36v-25.36Z" fill="#fff"/><path d="M482.21,437.38v-27.11h159.42v-35.9h25.11v63.01h-184.52Z" fill="#fff"/><path d="M482.21,295.03h146.61c7.53,.25,14.31,1.76,20.08,4.52,5.02,2.26,9.79,5.77,13.56,10.79,4.02,5.02,6.28,11.8,6.28,20.84s-2.26,16.07-6.28,21.09c-3.77,5.02-8.54,8.29-13.56,10.54-5.77,2.76-12.55,4.27-20.08,4.52h-146.61v-27.11h146.61c5.27,0,8.79-1.26,11.55-3.77,1.25-1.25,2.01-3.01,2.01-5.27,0-4.77-3.01-7.03-6.78-8.03-1.76-.75-4.02-1-6.78-1h-146.61v-27.11Z" fill="#fff"/><path d="M666.73,278.96h-184.52v-23.85c0-16.07,3.01-28.62,10.79-36.9s19.83-12.55,38.16-12.55c8.79,0,15.31,.75,21.34,3.51,6.03,2.76,11.05,7.03,16.82,13.31,3.77-6.78,10.79-11.8,22.59-15.82,5.77-2.01,13.31-3.01,22.59-3.01,13.81,0,26.11,2.51,35.65,8.79s15.82,17.07,16.57,33.14v33.39Zm-108.46-27.11c0-2.26,.25-7.53-2.76-12.05-3.01-4.52-9.04-8.03-21.84-8.03s-18.83,3.51-21.84,8.03c-3.01,4.52-2.76,9.79-2.76,12.05h49.21Zm81.59,0c0-2.26,.5-7.53-2.76-12.05-3.26-4.52-10.54-8.03-25.61-8.03s-22.34,3.51-25.61,8.03c-3.26,4.52-2.76,9.79-2.76,12.05h56.74Z" fill="#fff"/></g><path d="M573.35,.3c-51.59,.05-93.4,41.86-93.46,93.46,4.67,123.83,182.24,123.77,186.91,0-.05-51.59-41.86-93.4-93.46-93.46Zm27.26,62.3c6.45,0,11.68,5.23,11.68,11.68s-5.23,11.68-11.68,11.68-11.68-5.23-11.68-11.68,5.23-11.68,11.68-11.68Zm-54.51,0c6.45,0,11.68,5.23,11.68,11.68s-5.23,11.68-11.68,11.68-11.68-5.23-11.68-11.68,5.23-11.68,11.68-11.68Zm72.76,58.74c-9.31,16.42-26.63,26.66-45.5,26.93-18.88-.26-36.21-10.51-45.54-26.93-2.32-3.62-1.27-8.44,2.36-10.76,1.72-1.1,3.8-1.49,5.8-1.06,11.97,4.51,24.59,7.08,37.38,7.6,12.77-.53,25.36-3.1,37.32-7.6,4.21-.89,8.34,1.79,9.24,5.99,.43,2.01,.05,4.1-1.06,5.83Z" fill="#e26ef5"/></svg>