<?xml version="1.0" encoding="UTF-8"?><svg id="uuid-dbeb8d71-87ea-47b2-85dc-55ef02707ce3" xmlns="http://www.w3.org/2000/svg" viewBox="0 0 803.26 907.2"><path d="M12.3,894.88C4.09,886.68,0,876.52,0,864.43V44.24C0,32.17,4.09,21.81,12.3,13.17,20.48,4.52,30.63,.2,42.72,.2h103.56c12.08,0,22.22,4.33,30.42,12.97,8.19,8.64,12.3,19,12.3,31.08V445.92H102V87.01h-15V820.38h15V461.48h87v402.95c0,12.09-4.11,22.25-12.3,30.45-8.2,8.22-18.34,12.31-30.42,12.31H42.72c-12.09,0-22.23-4.09-30.42-12.31Z"/><path d="M204.75,907.2V.2h87V820.38h15V461.48h87v445.72H204.75Z"/><path d="M421.81,894.88c-8.2-8.2-12.3-18.36-12.3-30.45V.2h87V820.57h15V.2h87V864.43c0,12.09-4.11,22.25-12.3,30.45-8.2,8.22-18.34,12.31-30.42,12.31h-103.56c-12.09,0-22.23-4.09-30.42-12.31Z"/><path d="M614.26,907.2V.2h189V393.67h-87V86.92h-15V409.2h102v87h-102v324.12h15v-307.27h87v394.14h-189Z"/></svg>